<mxfile host="app.diagrams.net" modified="2024-05-14T07:11:50.009Z" agent="Mozilla/5.0 (Windows NT 10.0; Win64; x64) AppleWebKit/537.36 (KHTML, like Gecko) Chrome/124.0.0.0 Safari/537.36" etag="zg2DLpfcaP0Qd2mswhkX" version="24.4.0" type="device">
  <diagram name="Страница — 1" id="qDLmfkoNYRGy86w4_ZKh">
    <mxGraphModel dx="856" dy="580" grid="1" gridSize="10" guides="1" tooltips="1" connect="1" arrows="1" fold="1" page="1" pageScale="1" pageWidth="827" pageHeight="1169" math="0" shadow="0">
      <root>
        <mxCell id="0" />
        <mxCell id="1" parent="0" />
        <mxCell id="wfv2ySqL_5BSicRP3CRN-5" value="" style="edgeStyle=orthogonalEdgeStyle;rounded=0;orthogonalLoop=1;jettySize=auto;html=1;" parent="1" source="wfv2ySqL_5BSicRP3CRN-1" target="wfv2ySqL_5BSicRP3CRN-4" edge="1">
          <mxGeometry relative="1" as="geometry" />
        </mxCell>
        <mxCell id="wfv2ySqL_5BSicRP3CRN-1" value="Start" style="ellipse;whiteSpace=wrap;html=1;fillColor=#ffe6cc;strokeColor=#d79b00;" parent="1" vertex="1">
          <mxGeometry x="140" y="20" width="100" height="40" as="geometry" />
        </mxCell>
        <mxCell id="wfv2ySqL_5BSicRP3CRN-18" value="" style="edgeStyle=orthogonalEdgeStyle;rounded=0;orthogonalLoop=1;jettySize=auto;html=1;" parent="1" source="wfv2ySqL_5BSicRP3CRN-4" target="wfv2ySqL_5BSicRP3CRN-17" edge="1">
          <mxGeometry relative="1" as="geometry" />
        </mxCell>
        <mxCell id="wfv2ySqL_5BSicRP3CRN-4" value="Ввод данных" style="shape=parallelogram;perimeter=parallelogramPerimeter;whiteSpace=wrap;html=1;fixedSize=1;fillColor=#fff2cc;strokeColor=#d6b656;" parent="1" vertex="1">
          <mxGeometry x="130" y="90" width="120" height="50" as="geometry" />
        </mxCell>
        <mxCell id="wfv2ySqL_5BSicRP3CRN-28" style="edgeStyle=orthogonalEdgeStyle;rounded=0;orthogonalLoop=1;jettySize=auto;html=1;entryX=0;entryY=0.5;entryDx=0;entryDy=0;exitX=0;exitY=0.5;exitDx=0;exitDy=0;" parent="1" source="wfv2ySqL_5BSicRP3CRN-8" target="wfv2ySqL_5BSicRP3CRN-17" edge="1">
          <mxGeometry relative="1" as="geometry">
            <mxPoint x="90" y="385" as="sourcePoint" />
            <mxPoint x="90" y="195" as="targetPoint" />
            <Array as="points">
              <mxPoint x="60" y="435" />
              <mxPoint x="60" y="225" />
            </Array>
          </mxGeometry>
        </mxCell>
        <mxCell id="wfv2ySqL_5BSicRP3CRN-8" value="Счетчик" style="rounded=1;whiteSpace=wrap;html=1;" parent="1" vertex="1">
          <mxGeometry x="130" y="410" width="120" height="50" as="geometry" />
        </mxCell>
        <mxCell id="wfv2ySqL_5BSicRP3CRN-11" value="Вывод" style="shape=document;whiteSpace=wrap;html=1;boundedLbl=1;" parent="1" vertex="1">
          <mxGeometry x="330" y="200" width="100" height="50" as="geometry" />
        </mxCell>
        <mxCell id="wfv2ySqL_5BSicRP3CRN-14" value="Yes" style="text;html=1;align=center;verticalAlign=middle;resizable=0;points=[];autosize=1;strokeColor=none;fillColor=none;" parent="1" vertex="1">
          <mxGeometry x="270" y="280" width="40" height="30" as="geometry" />
        </mxCell>
        <mxCell id="-DwwlYoILpwC-Q6K6Jx7-2" value="" style="edgeStyle=orthogonalEdgeStyle;rounded=0;orthogonalLoop=1;jettySize=auto;html=1;entryX=0.5;entryY=0;entryDx=0;entryDy=0;" edge="1" parent="1" source="wfv2ySqL_5BSicRP3CRN-17" target="-DwwlYoILpwC-Q6K6Jx7-4">
          <mxGeometry relative="1" as="geometry">
            <mxPoint x="190" y="240" as="targetPoint" />
          </mxGeometry>
        </mxCell>
        <mxCell id="-DwwlYoILpwC-Q6K6Jx7-10" value="" style="edgeStyle=orthogonalEdgeStyle;rounded=0;orthogonalLoop=1;jettySize=auto;html=1;" edge="1" parent="1" source="wfv2ySqL_5BSicRP3CRN-17" target="wfv2ySqL_5BSicRP3CRN-11">
          <mxGeometry relative="1" as="geometry" />
        </mxCell>
        <mxCell id="wfv2ySqL_5BSicRP3CRN-17" value="Условие" style="shape=hexagon;perimeter=hexagonPerimeter2;whiteSpace=wrap;html=1;fixedSize=1;fillColor=#d5e8d4;strokeColor=#82b366;" parent="1" vertex="1">
          <mxGeometry x="130" y="200" width="120" height="50" as="geometry" />
        </mxCell>
        <mxCell id="3J4uzUkoUH642ZM-bGWm-2" value="no" style="text;html=1;align=center;verticalAlign=middle;resizable=0;points=[];autosize=1;strokeColor=none;fillColor=none;" parent="1" vertex="1">
          <mxGeometry x="120" y="370" width="40" height="30" as="geometry" />
        </mxCell>
        <mxCell id="-DwwlYoILpwC-Q6K6Jx7-3" value="" style="edgeStyle=orthogonalEdgeStyle;rounded=0;orthogonalLoop=1;jettySize=auto;html=1;" edge="1" parent="1">
          <mxGeometry relative="1" as="geometry">
            <mxPoint x="190" y="300" as="sourcePoint" />
            <mxPoint x="190" y="320" as="targetPoint" />
          </mxGeometry>
        </mxCell>
        <mxCell id="-DwwlYoILpwC-Q6K6Jx7-8" style="edgeStyle=orthogonalEdgeStyle;rounded=0;orthogonalLoop=1;jettySize=auto;html=1;entryX=0.5;entryY=0;entryDx=0;entryDy=0;" edge="1" parent="1" source="-DwwlYoILpwC-Q6K6Jx7-4" target="wfv2ySqL_5BSicRP3CRN-8">
          <mxGeometry relative="1" as="geometry" />
        </mxCell>
        <mxCell id="-DwwlYoILpwC-Q6K6Jx7-4" value="Условие" style="shape=hexagon;perimeter=hexagonPerimeter2;whiteSpace=wrap;html=1;fixedSize=1;fillColor=#d5e8d4;strokeColor=#82b366;" vertex="1" parent="1">
          <mxGeometry x="130" y="300" width="120" height="50" as="geometry" />
        </mxCell>
        <mxCell id="-DwwlYoILpwC-Q6K6Jx7-5" value="" style="edgeStyle=orthogonalEdgeStyle;rounded=0;orthogonalLoop=1;jettySize=auto;html=1;exitX=0.496;exitY=0.907;exitDx=0;exitDy=0;exitPerimeter=0;" edge="1" parent="1" source="wfv2ySqL_5BSicRP3CRN-11" target="wfv2ySqL_5BSicRP3CRN-3">
          <mxGeometry relative="1" as="geometry">
            <mxPoint x="390" y="465" as="sourcePoint" />
            <mxPoint x="390" y="570" as="targetPoint" />
          </mxGeometry>
        </mxCell>
        <mxCell id="wfv2ySqL_5BSicRP3CRN-3" value="Finish" style="ellipse;whiteSpace=wrap;html=1;fillColor=#ffe6cc;strokeColor=#d79b00;" parent="1" vertex="1">
          <mxGeometry x="330" y="320" width="100" height="40" as="geometry" />
        </mxCell>
        <mxCell id="-DwwlYoILpwC-Q6K6Jx7-9" value="Yes" style="text;html=1;align=center;verticalAlign=middle;resizable=0;points=[];autosize=1;strokeColor=none;fillColor=none;" vertex="1" parent="1">
          <mxGeometry x="140" y="258" width="40" height="30" as="geometry" />
        </mxCell>
        <mxCell id="-DwwlYoILpwC-Q6K6Jx7-11" value="no" style="text;html=1;align=center;verticalAlign=middle;resizable=0;points=[];autosize=1;strokeColor=none;fillColor=none;" vertex="1" parent="1">
          <mxGeometry x="260" y="198" width="40" height="30" as="geometry" />
        </mxCell>
      </root>
    </mxGraphModel>
  </diagram>
</mxfile>
